<?xml version="1.0" encoding="UTF-8"?>
<svg width="481px" height="44px" viewBox="0 0 481 44" version="1.1" xmlns="http://www.w3.org/2000/svg" xmlns:xlink="http://www.w3.org/1999/xlink">
    <!-- Generator: Sketch 52.6 (67491) - http://www.bohemiancoding.com/sketch -->
    <title>Group</title>
    <desc>Created with Sketch.</desc>
    <g id="Page-1" stroke="none" stroke-width="1" fill="none" fill-rule="evenodd">
        <g id="Desktop-HD" transform="translate(-32.000000, -51.000000)">
            <g id="Group" transform="translate(32.000000, 51.000000)">
                <path d="M345.2895,0.697 C357.0895,0.697 363.8745,8.485 363.8745,21.642 C363.8745,34.917 355.9095,43.767 344.1095,43.767 C332.3095,43.767 325.8195,36.392 325.8195,22.527 C325.8195,8.957 333.3125,0.697 345.2895,0.697 Z M344.9945,8.072 C339.0945,8.072 335.8495,11.73 335.8495,22.232 C335.8495,31.967 338.5045,36.392 344.4045,36.392 C350.3045,36.392 353.8445,32.557 353.8445,21.937 C353.8445,12.202 350.8945,8.072 344.9945,8.072 Z M385.7045,43 L385.7045,37.985 L390.1295,36.215 L390.1295,8.485 L385.7045,6.715 L385.7045,1.7 L399.8645,1.405 L415.7945,28.663 L415.7945,8.485 L411.4875,6.715 L411.4875,1.7 L428.3025,1.405 L428.3025,6.715 L423.8775,8.485 L423.8775,43 L414.0245,43 L398.2125,16.273 L398.2125,36.215 L402.8145,37.985 L402.8145,43 L385.7045,43 Z M474.7355,18.22 L474.7355,24.71 L462.8175,24.71 L462.8175,35.92 L473.3785,35.92 L474.7355,31.082 L480.0455,31.082 L480.0455,43 L449.2475,43 L449.2475,37.985 L453.6725,36.215 L453.6725,8.485 L449.2475,6.715 L449.2475,1.7 L462.8175,1.405 L479.3375,1.405 L479.3375,12.792 L474.0275,12.792 L472.5525,8.485 L462.8175,8.485 L462.8175,18.22 L474.7355,18.22 Z" id="ONE" fill="#647C35"></path>
                <path d="M28.27,14.09 L26.795,9.016 C26.795,9.016 24.022,8.072 20.128,8.072 C13.815,8.072 10.275,12.674 10.275,22.527 C10.275,32.085 13.992,36.215 20.305,36.215 C23.373,36.215 26.795,35.153 26.795,35.153 L26.795,27.719 L22.37,26.362 L22.37,21.524 L39.362,21.229 L39.362,26.362 L35.35,27.719 L35.35,39.755 C35.35,39.755 29.273,43.708 19.302,43.708 C7.325,43.708 0.422,36.51 0.422,22.822 C0.422,8.957 8.21,0.697 20.305,0.697 C27.444,0.697 34.052,3.47 34.052,3.47 L33.757,14.09 L28.27,14.09 Z M99.424,37.985 L99.424,43 L80.662,43 L80.662,37.985 L85.087,36.392 L83.671,32.085 L70.573,32.085 L69.098,36.333 L73.7,37.985 L73.7,43 L55.882,43 L55.882,37.985 L60.189,36.333 L73.169,1.582 L82.609,1.405 L95.294,36.333 L99.424,37.985 Z M81.724,25.772 L77.299,11.789 L72.638,25.772 L81.724,25.772 Z M158.896,37.985 L158.896,43 L140.134,43 L140.134,37.985 L144.559,36.392 L143.143,32.085 L130.045,32.085 L128.57,36.333 L133.172,37.985 L133.172,43 L115.354,43 L115.354,37.985 L119.661,36.333 L132.641,1.582 L142.081,1.405 L154.766,36.333 L158.896,37.985 Z M141.196,25.772 L136.771,11.789 L132.11,25.772 L141.196,25.772 Z M177.776,43 L177.776,37.985 L182.201,36.215 L182.201,8.485 L177.776,6.715 L177.776,1.7 L191.346,1.405 L195.83,1.405 C205.506,1.405 211.17,5.417 211.17,13.441 C211.17,18.987 208.515,22.586 204.503,24.592 C205.152,25.359 206.037,26.48 206.981,28.427 L210.934,36.51 L214.946,37.985 L214.946,43 L204.031,43 L199.075,32.085 C197.069,27.601 196.538,26.657 193.411,26.657 L191.346,26.657 L191.346,36.215 L195.594,37.985 L195.594,43 L177.776,43 Z M191.346,20.462 L194.709,20.462 C199.37,20.462 202.084,18.22 202.084,14.267 C202.084,10.904 199.842,8.485 196.184,8.485 L191.346,8.485 L191.346,20.462 Z M238.841,36.215 L238.841,8.485 L234.416,6.715 L234.416,1.7 L247.986,1.405 L253.591,1.405 C265.391,1.405 272.353,8.367 272.353,21.642 C272.353,34.917 264.683,43 252.706,43 L234.416,43 L234.416,37.985 L238.841,36.215 Z M247.986,35.92 L252.883,35.92 C258.606,35.92 262.441,32.557 262.441,21.937 C262.441,12.025 259.078,8.485 253.296,8.485 L247.986,8.485 L247.986,35.92 Z" id="GAARD" fill="#958D83"></path>
                <circle id="Oval" fill="#647C35" fill-rule="nonzero" cx="299.5" cy="19.5" r="7.5"></circle>
            </g>
        </g>
    </g>
</svg>